<svg xmlns="http://www.w3.org/2000/svg" width="461.47" height="272" viewBox="0 0 461.47 272">
  <defs>
    <style>
      .cls-1 {
        fill: #ff72c2;
      }

      .cls-2 {
        fill: #fff;
      }
    </style>
  </defs>
  <title>Titelbillede_RT</title>
  <g id="Play_Knap" data-name="Play Knap">
    <g>
      <rect x="25.26" y="17.68" width="436.21" height="254.32" rx="24.74"/>
      <rect class="cls-1" width="436.21" height="254.32" rx="24.74"/>
      <g>
        <path class="cls-2" d="M190.1,117a36.52,36.52,0,0,1-14.22,12.89q-9.33,5-22.21,5.89l-4.78,26.76Q146.12,178,133.79,178a21.35,21.35,0,0,1-12.5-4q-5.72-4-9.16-12.22t-3.44-20.21q0-22.55,7.27-38.26t19.55-23.55a49.28,49.28,0,0,1,27.05-7.83q10.42,0,17.71,3.67a26,26,0,0,1,11,9.94A27.22,27.22,0,0,1,195,99.68,32.21,32.21,0,0,1,190.1,117Zm-11.66-16.32a15.75,15.75,0,0,0-4.83-11.94q-4.83-4.6-14.94-4.61a29.86,29.86,0,0,0-19.94,7.22q-8.49,7.22-13.1,20.05T121,140.66a48.94,48.94,0,0,0,1.38,12.22,24.37,24.37,0,0,0,3.56,8.27q2.16,3,4.16,2.95,2.77,0,4.22-7.67l3.67-21c-2.89-.44-4.15-.63-3.78-.55q-3.33-.55-4.33-2.06a6.81,6.81,0,0,1-1-3.83,5.37,5.37,0,0,1,1.39-3.89,5.07,5.07,0,0,1,3.83-1.44,9.67,9.67,0,0,1,1.67.11c1.77.3,3.14.48,4.11.56q1.44-8.67,4.11-23.22a7.73,7.73,0,0,1,3.05-5.38,9.74,9.74,0,0,1,5.61-1.61q3.66,0,5.28,1.38a5.52,5.52,0,0,1,1.61,4.39,15,15,0,0,1-.23,2.89l-3.66,21.55Q178.44,121.45,178.44,100.68Z"/>
        <path class="cls-2" d="M242.69,142.44a6.94,6.94,0,0,1,.83,3.66c0,3-.7,5.26-2.11,6.89A47.61,47.61,0,0,1,231,162.65a22.24,22.24,0,0,1-12.72,3.78q-9.78,0-14.49-8.89t-4.72-23a158,158,0,0,1,3.49-30.87q3.51-17.33,10.33-29.77t16.27-12.44q5.34,0,8.39,4.94t3,14.17q0,13.22-7.33,30.65a169.08,169.08,0,0,1-19.88,34.54c.52,3,1.37,5.2,2.56,6.5a6,6,0,0,0,4.66,1.94,12.88,12.88,0,0,0,8-2.61,61,61,0,0,0,8.77-8.94,3.89,3.89,0,0,1,3-1.55A2.57,2.57,0,0,1,242.69,142.44ZM221,81.69a151,151,0,0,0-5.67,22.88,165.61,165.61,0,0,0-2.67,26.21,143.28,143.28,0,0,0,12.56-26q4.67-13,4.66-23.82,0-8.44-3.11-8.44Q224.2,72.47,221,81.69Z"/>
        <path class="cls-2" d="M236.08,161.43q-4.11-5-4.11-13.1a36.09,36.09,0,0,1,4.11-16.83A35.13,35.13,0,0,1,247,118.73a24.65,24.65,0,0,1,14.49-4.83c1.63,0,2.73.31,3.28.94a7.92,7.92,0,0,1,1.39,3.39,25.7,25.7,0,0,1,4.89-.45c3.62,0,5.44,1.3,5.44,3.89a83.89,83.89,0,0,1-1.67,11.11q-2.55,12.76-2.55,17.77a4,4,0,0,0,.83,2.66,2.69,2.69,0,0,0,2.17,1c1.4,0,3.1-.9,5.1-2.72a93.81,93.81,0,0,0,8.11-8.83,3.89,3.89,0,0,1,3-1.55,2.57,2.57,0,0,1,2.28,1.33,6.94,6.94,0,0,1,.83,3.66c0,3-.7,5.26-2.11,6.89a56.1,56.1,0,0,1-9.66,9.55q-5.11,3.89-9.89,3.89a10.37,10.37,0,0,1-6.72-2.5,15.31,15.31,0,0,1-4.61-6.83q-5.78,9.33-14.54,9.33A13.51,13.51,0,0,1,236.08,161.43Zm19.66-9.11a18.7,18.7,0,0,0,3.22-7.66l4.11-20.44a13.54,13.54,0,0,0-8.61,3.5,23.52,23.52,0,0,0-6.27,8.94,30.06,30.06,0,0,0-2.34,11.78,7.85,7.85,0,0,0,1.39,5.11,4.72,4.72,0,0,0,3.83,1.66Q253.52,155.21,255.74,152.32Z"/>
        <path class="cls-2" d="M328,114.78a2.47,2.47,0,0,1,1,2.22q0,2.67-2.89,19-2.55,15.66-3,18.55-4.11,28.53-11.33,45.2t-19.21,16.66a12.59,12.59,0,0,1-9.22-3.5,12.28,12.28,0,0,1-3.55-9.16,26.25,26.25,0,0,1,2.39-10.66q2.38-5.44,8.88-12.5a147.27,147.27,0,0,1,18.38-16.16l.34-2.55c.51-2.74,1.11-6.67,1.77-11.78q-2.22,8-6.22,12.16t-8.44,4.17q-5,0-8.16-4.61a19.83,19.83,0,0,1-3.17-11.5,88.72,88.72,0,0,1,4.78-30,9.31,9.31,0,0,1,3.11-4.78q2-1.44,6.33-1.44a5.55,5.55,0,0,1,3.39.77,2.86,2.86,0,0,1,.94,2.34,46.7,46.7,0,0,1-1.22,6q-1.11,4.11-1.78,7.45c-.59,3-1.11,5.94-1.55,8.71a44.43,44.43,0,0,0-.67,6.84q0,4.22,2.33,4.22,1.67,0,4.17-3.34a49.42,49.42,0,0,0,5.33-10.1,135.4,135.4,0,0,0,5.5-16.66,7.2,7.2,0,0,1,8.22-6.22A6.86,6.86,0,0,1,328,114.78Zm-28,84.41q3.45-6.44,6.89-21.43-8.55,7.22-12.39,13.16t-3.83,10.38a6,6,0,0,0,.72,3.11,2.56,2.56,0,0,0,2.39,1.23Q296.61,205.64,300.05,199.19Z"/>
      </g>
      <path class="cls-2" d="M25.26,71.75a8.42,8.42,0,0,1-8.42-8.43c0-39.78,25.18-40.8,35.93-41.24,1.09,0,2.12-.09,2.95-.16a8.42,8.42,0,0,1,1.4,16.79c-1.18.1-2.39.15-3.67.2-10.61.43-19.77.8-19.77,24.41A8.42,8.42,0,0,1,25.26,71.75Z"/>
      <path class="cls-2" d="M26.11,197.05a8.42,8.42,0,0,1-8.43-8.42V98.53a8.43,8.43,0,0,1,16.85,0v90.1A8.42,8.42,0,0,1,26.11,197.05Z"/>
    </g>
  </g>
</svg>
